<mxfile host="app.diagrams.net" agent="Mozilla/5.0 (X11; Linux x86_64) AppleWebKit/537.36 (KHTML, like Gecko) Chrome/116.0.5845.1023 YaBrowser/23.9.1.1023 (corp) Yowser/2.5 Safari/537.36" version="24.7.17">
  <diagram name="Page-1" id="SIedrjSHYhCh8qatOTMx">
    <mxGraphModel dx="1386" dy="807" grid="1" gridSize="10" guides="1" tooltips="1" connect="1" arrows="1" fold="1" page="1" pageScale="1" pageWidth="1169" pageHeight="827" math="0" shadow="0">
      <root>
        <mxCell id="0" />
        <mxCell id="1" parent="0" />
        <mxCell id="Ls3zkV5yW3431TjeRwPU-12" style="edgeStyle=orthogonalEdgeStyle;rounded=0;orthogonalLoop=1;jettySize=auto;html=1;entryX=0;entryY=0.25;entryDx=0;entryDy=0;" parent="1" source="3ns8ObB6QC6arM-OHQTF-1" target="3ns8ObB6QC6arM-OHQTF-5" edge="1">
          <mxGeometry relative="1" as="geometry" />
        </mxCell>
        <mxCell id="Ls3zkV5yW3431TjeRwPU-18" value="Валидация&lt;br&gt;значений полей&lt;br&gt;документов на соответствие&lt;br&gt;продукту" style="edgeLabel;html=1;align=center;verticalAlign=middle;resizable=0;points=[];" parent="Ls3zkV5yW3431TjeRwPU-12" vertex="1" connectable="0">
          <mxGeometry x="0.02" y="-2" relative="1" as="geometry">
            <mxPoint as="offset" />
          </mxGeometry>
        </mxCell>
        <mxCell id="Ls3zkV5yW3431TjeRwPU-39" style="edgeStyle=orthogonalEdgeStyle;rounded=0;orthogonalLoop=1;jettySize=auto;html=1;entryX=0.5;entryY=1;entryDx=0;entryDy=0;exitX=0.5;exitY=1;exitDx=0;exitDy=0;" parent="1" source="3ns8ObB6QC6arM-OHQTF-1" target="3ns8ObB6QC6arM-OHQTF-7" edge="1">
          <mxGeometry relative="1" as="geometry">
            <mxPoint x="80" y="330" as="sourcePoint" />
            <Array as="points">
              <mxPoint x="80" y="560" />
              <mxPoint x="640" y="560" />
            </Array>
          </mxGeometry>
        </mxCell>
        <mxCell id="3ns8ObB6QC6arM-OHQTF-1" value="Лицензии и сертификаты" style="whiteSpace=wrap;html=1;aspect=fixed;" parent="1" vertex="1">
          <mxGeometry x="40" y="240" width="80" height="80" as="geometry" />
        </mxCell>
        <mxCell id="Ls3zkV5yW3431TjeRwPU-20" style="edgeStyle=orthogonalEdgeStyle;rounded=0;orthogonalLoop=1;jettySize=auto;html=1;entryX=0.75;entryY=1;entryDx=0;entryDy=0;exitX=0.5;exitY=1;exitDx=0;exitDy=0;" parent="1" source="3ns8ObB6QC6arM-OHQTF-2" target="3ns8ObB6QC6arM-OHQTF-1" edge="1">
          <mxGeometry relative="1" as="geometry">
            <Array as="points">
              <mxPoint x="490" y="480" />
              <mxPoint x="100" y="480" />
            </Array>
          </mxGeometry>
        </mxCell>
        <mxCell id="Ls3zkV5yW3431TjeRwPU-21" value="Запрашивает документ по которому нужно сгенерировать ПДФ" style="edgeLabel;html=1;align=center;verticalAlign=middle;resizable=0;points=[];" parent="Ls3zkV5yW3431TjeRwPU-20" vertex="1" connectable="0">
          <mxGeometry x="-0.0233" y="1" relative="1" as="geometry">
            <mxPoint x="10" as="offset" />
          </mxGeometry>
        </mxCell>
        <mxCell id="3ns8ObB6QC6arM-OHQTF-2" value="Генерация ПДФ" style="whiteSpace=wrap;html=1;aspect=fixed;" parent="1" vertex="1">
          <mxGeometry x="450" y="280" width="80" height="80" as="geometry" />
        </mxCell>
        <mxCell id="3ns8ObB6QC6arM-OHQTF-3" value="Нотификации" style="whiteSpace=wrap;html=1;aspect=fixed;" parent="1" vertex="1">
          <mxGeometry x="880" y="280" width="80" height="80" as="geometry" />
        </mxCell>
        <mxCell id="Ls3zkV5yW3431TjeRwPU-30" style="edgeStyle=orthogonalEdgeStyle;rounded=0;orthogonalLoop=1;jettySize=auto;html=1;entryX=0.25;entryY=1;entryDx=0;entryDy=0;exitX=1;exitY=0.25;exitDx=0;exitDy=0;" parent="1" source="3ns8ObB6QC6arM-OHQTF-5" target="3ns8ObB6QC6arM-OHQTF-16" edge="1">
          <mxGeometry relative="1" as="geometry">
            <Array as="points">
              <mxPoint x="440" y="380" />
              <mxPoint x="440" y="400" />
              <mxPoint x="780" y="400" />
            </Array>
          </mxGeometry>
        </mxCell>
        <mxCell id="Ls3zkV5yW3431TjeRwPU-31" value="Есть ли новые версии, обновления, исправления" style="edgeLabel;html=1;align=center;verticalAlign=middle;resizable=0;points=[];" parent="Ls3zkV5yW3431TjeRwPU-30" vertex="1" connectable="0">
          <mxGeometry x="-0.0684" y="-3" relative="1" as="geometry">
            <mxPoint x="12" y="-3" as="offset" />
          </mxGeometry>
        </mxCell>
        <mxCell id="Ls3zkV5yW3431TjeRwPU-32" style="edgeStyle=orthogonalEdgeStyle;rounded=0;orthogonalLoop=1;jettySize=auto;html=1;exitX=1;exitY=0.75;exitDx=0;exitDy=0;entryX=0.25;entryY=1;entryDx=0;entryDy=0;" parent="1" source="3ns8ObB6QC6arM-OHQTF-5" target="3ns8ObB6QC6arM-OHQTF-3" edge="1">
          <mxGeometry relative="1" as="geometry">
            <mxPoint x="940" y="360" as="targetPoint" />
            <Array as="points">
              <mxPoint x="420" y="420" />
              <mxPoint x="420" y="440" />
              <mxPoint x="900" y="440" />
            </Array>
          </mxGeometry>
        </mxCell>
        <mxCell id="Ls3zkV5yW3431TjeRwPU-33" value="Вышла новая версия, обновление, исправление" style="edgeLabel;html=1;align=center;verticalAlign=middle;resizable=0;points=[];" parent="Ls3zkV5yW3431TjeRwPU-32" vertex="1" connectable="0">
          <mxGeometry x="-0.0969" y="2" relative="1" as="geometry">
            <mxPoint as="offset" />
          </mxGeometry>
        </mxCell>
        <mxCell id="3ns8ObB6QC6arM-OHQTF-5" value="Продукты" style="whiteSpace=wrap;html=1;aspect=fixed;" parent="1" vertex="1">
          <mxGeometry x="320" y="360" width="80" height="80" as="geometry" />
        </mxCell>
        <mxCell id="Ls3zkV5yW3431TjeRwPU-42" style="edgeStyle=orthogonalEdgeStyle;rounded=0;orthogonalLoop=1;jettySize=auto;html=1;entryX=0.5;entryY=1;entryDx=0;entryDy=0;" parent="1" source="3ns8ObB6QC6arM-OHQTF-6" target="3ns8ObB6QC6arM-OHQTF-16" edge="1">
          <mxGeometry relative="1" as="geometry">
            <Array as="points">
              <mxPoint x="800" y="500" />
            </Array>
          </mxGeometry>
        </mxCell>
        <mxCell id="Ls3zkV5yW3431TjeRwPU-43" style="edgeStyle=orthogonalEdgeStyle;rounded=0;orthogonalLoop=1;jettySize=auto;html=1;entryX=0.75;entryY=1;entryDx=0;entryDy=0;" parent="1" source="3ns8ObB6QC6arM-OHQTF-6" target="3ns8ObB6QC6arM-OHQTF-7" edge="1">
          <mxGeometry relative="1" as="geometry">
            <Array as="points">
              <mxPoint x="660" y="540" />
            </Array>
          </mxGeometry>
        </mxCell>
        <mxCell id="Ls3zkV5yW3431TjeRwPU-44" style="edgeStyle=orthogonalEdgeStyle;rounded=0;orthogonalLoop=1;jettySize=auto;html=1;entryX=0.5;entryY=1;entryDx=0;entryDy=0;" parent="1" source="3ns8ObB6QC6arM-OHQTF-6" target="3ns8ObB6QC6arM-OHQTF-3" edge="1">
          <mxGeometry relative="1" as="geometry" />
        </mxCell>
        <mxCell id="Ls3zkV5yW3431TjeRwPU-45" style="edgeStyle=orthogonalEdgeStyle;rounded=0;orthogonalLoop=1;jettySize=auto;html=1;entryX=0;entryY=0.75;entryDx=0;entryDy=0;" parent="1" source="3ns8ObB6QC6arM-OHQTF-6" target="3ns8ObB6QC6arM-OHQTF-1" edge="1">
          <mxGeometry relative="1" as="geometry">
            <Array as="points">
              <mxPoint x="1120" y="600" />
              <mxPoint x="20" y="600" />
              <mxPoint x="20" y="300" />
            </Array>
          </mxGeometry>
        </mxCell>
        <mxCell id="3ns8ObB6QC6arM-OHQTF-6" value="Отчёты" style="whiteSpace=wrap;html=1;aspect=fixed;" parent="1" vertex="1">
          <mxGeometry x="1080" y="480" width="80" height="80" as="geometry" />
        </mxCell>
        <mxCell id="3ns8ObB6QC6arM-OHQTF-7" value="Организации" style="whiteSpace=wrap;html=1;aspect=fixed;" parent="1" vertex="1">
          <mxGeometry x="600" y="280" width="80" height="80" as="geometry" />
        </mxCell>
        <mxCell id="Ls3zkV5yW3431TjeRwPU-36" style="edgeStyle=orthogonalEdgeStyle;rounded=0;orthogonalLoop=1;jettySize=auto;html=1;exitX=0.25;exitY=1;exitDx=0;exitDy=0;entryX=0.75;entryY=1;entryDx=0;entryDy=0;" parent="1" source="3ns8ObB6QC6arM-OHQTF-8" target="3ns8ObB6QC6arM-OHQTF-3" edge="1">
          <mxGeometry relative="1" as="geometry">
            <Array as="points">
              <mxPoint x="1020" y="440" />
              <mxPoint x="940" y="440" />
            </Array>
          </mxGeometry>
        </mxCell>
        <mxCell id="Ls3zkV5yW3431TjeRwPU-37" value="Изменения&lt;br&gt;по запросам" style="edgeLabel;html=1;align=center;verticalAlign=middle;resizable=0;points=[];" parent="Ls3zkV5yW3431TjeRwPU-36" vertex="1" connectable="0">
          <mxGeometry x="-0.1154" y="1" relative="1" as="geometry">
            <mxPoint x="-15" as="offset" />
          </mxGeometry>
        </mxCell>
        <mxCell id="3ns8ObB6QC6arM-OHQTF-8" value="Запросы в техническую поддержку" style="whiteSpace=wrap;html=1;aspect=fixed;" parent="1" vertex="1">
          <mxGeometry x="1000" y="280" width="80" height="80" as="geometry" />
        </mxCell>
        <mxCell id="Ls3zkV5yW3431TjeRwPU-25" style="edgeStyle=orthogonalEdgeStyle;rounded=0;orthogonalLoop=1;jettySize=auto;html=1;entryX=0.25;entryY=1;entryDx=0;entryDy=0;exitX=0.75;exitY=1;exitDx=0;exitDy=0;" parent="1" source="3ns8ObB6QC6arM-OHQTF-16" target="3ns8ObB6QC6arM-OHQTF-1" edge="1">
          <mxGeometry relative="1" as="geometry">
            <Array as="points">
              <mxPoint x="820" y="520" />
              <mxPoint x="60" y="520" />
            </Array>
          </mxGeometry>
        </mxCell>
        <mxCell id="Ls3zkV5yW3431TjeRwPU-27" value="Информация по лицензии, чтобы понять какие артефакты возвращать пользователю" style="edgeLabel;html=1;align=center;verticalAlign=middle;resizable=0;points=[];" parent="Ls3zkV5yW3431TjeRwPU-25" vertex="1" connectable="0">
          <mxGeometry x="-0.2949" y="2" relative="1" as="geometry">
            <mxPoint x="-119" y="-2" as="offset" />
          </mxGeometry>
        </mxCell>
        <mxCell id="3ns8ObB6QC6arM-OHQTF-16" value="Сервис работы с S3" style="whiteSpace=wrap;html=1;aspect=fixed;" parent="1" vertex="1">
          <mxGeometry x="760" y="280" width="80" height="80" as="geometry" />
        </mxCell>
        <mxCell id="3ns8ObB6QC6arM-OHQTF-19" value="&lt;font style=&quot;font-size: 10px;&quot;&gt;Авторизация и аутентификация&lt;/font&gt;" style="whiteSpace=wrap;html=1;aspect=fixed;" parent="1" vertex="1">
          <mxGeometry x="40" y="80" width="80" height="80" as="geometry" />
        </mxCell>
        <mxCell id="Ls3zkV5yW3431TjeRwPU-4" style="edgeStyle=orthogonalEdgeStyle;rounded=0;orthogonalLoop=1;jettySize=auto;html=1;entryX=0.5;entryY=0;entryDx=0;entryDy=0;" parent="1" source="Ls3zkV5yW3431TjeRwPU-2" target="Ls3zkV5yW3431TjeRwPU-3" edge="1">
          <mxGeometry relative="1" as="geometry" />
        </mxCell>
        <mxCell id="Ls3zkV5yW3431TjeRwPU-2" value="Пользователь" style="shape=umlActor;verticalLabelPosition=bottom;verticalAlign=top;html=1;outlineConnect=0;" parent="1" vertex="1">
          <mxGeometry x="570" y="20" width="30" height="60" as="geometry" />
        </mxCell>
        <mxCell id="Ls3zkV5yW3431TjeRwPU-10" style="edgeStyle=orthogonalEdgeStyle;rounded=0;orthogonalLoop=1;jettySize=auto;html=1;entryX=1;entryY=0.5;entryDx=0;entryDy=0;exitX=0.25;exitY=0;exitDx=0;exitDy=0;" parent="1" source="Ls3zkV5yW3431TjeRwPU-3" target="3ns8ObB6QC6arM-OHQTF-19" edge="1">
          <mxGeometry relative="1" as="geometry" />
        </mxCell>
        <mxCell id="Ls3zkV5yW3431TjeRwPU-11" style="edgeStyle=orthogonalEdgeStyle;rounded=0;orthogonalLoop=1;jettySize=auto;html=1;entryX=0.5;entryY=0;entryDx=0;entryDy=0;exitX=0;exitY=0.25;exitDx=0;exitDy=0;" parent="1" source="Ls3zkV5yW3431TjeRwPU-3" target="3ns8ObB6QC6arM-OHQTF-1" edge="1">
          <mxGeometry relative="1" as="geometry">
            <mxPoint x="540" y="190" as="sourcePoint" />
          </mxGeometry>
        </mxCell>
        <mxCell id="Ls3zkV5yW3431TjeRwPU-17" style="edgeStyle=orthogonalEdgeStyle;rounded=0;orthogonalLoop=1;jettySize=auto;html=1;entryX=0.5;entryY=0;entryDx=0;entryDy=0;exitX=0;exitY=0.75;exitDx=0;exitDy=0;" parent="1" source="Ls3zkV5yW3431TjeRwPU-3" target="3ns8ObB6QC6arM-OHQTF-2" edge="1">
          <mxGeometry relative="1" as="geometry" />
        </mxCell>
        <mxCell id="Ls3zkV5yW3431TjeRwPU-22" style="edgeStyle=orthogonalEdgeStyle;rounded=0;orthogonalLoop=1;jettySize=auto;html=1;entryX=0.5;entryY=0;entryDx=0;entryDy=0;exitX=0;exitY=0.5;exitDx=0;exitDy=0;" parent="1" source="Ls3zkV5yW3431TjeRwPU-3" target="3ns8ObB6QC6arM-OHQTF-5" edge="1">
          <mxGeometry relative="1" as="geometry">
            <mxPoint x="540" y="210" as="sourcePoint" />
          </mxGeometry>
        </mxCell>
        <mxCell id="Ls3zkV5yW3431TjeRwPU-23" value="Сотрудник работает&lt;br&gt;с продуктами" style="edgeLabel;html=1;align=center;verticalAlign=middle;resizable=0;points=[];" parent="Ls3zkV5yW3431TjeRwPU-22" vertex="1" connectable="0">
          <mxGeometry x="-0.1158" relative="1" as="geometry">
            <mxPoint x="18" as="offset" />
          </mxGeometry>
        </mxCell>
        <mxCell id="Ls3zkV5yW3431TjeRwPU-24" style="edgeStyle=orthogonalEdgeStyle;rounded=0;orthogonalLoop=1;jettySize=auto;html=1;exitX=0.5;exitY=1;exitDx=0;exitDy=0;entryX=0.5;entryY=0;entryDx=0;entryDy=0;" parent="1" source="Ls3zkV5yW3431TjeRwPU-3" target="3ns8ObB6QC6arM-OHQTF-16" edge="1">
          <mxGeometry relative="1" as="geometry" />
        </mxCell>
        <mxCell id="Ls3zkV5yW3431TjeRwPU-26" value="Запрашивает список артефактов&lt;br&gt;или конкретный артефакт&lt;br&gt;по лицензии" style="edgeLabel;html=1;align=center;verticalAlign=middle;resizable=0;points=[];" parent="Ls3zkV5yW3431TjeRwPU-24" vertex="1" connectable="0">
          <mxGeometry x="-0.2163" relative="1" as="geometry">
            <mxPoint x="24" y="-5" as="offset" />
          </mxGeometry>
        </mxCell>
        <mxCell id="Ls3zkV5yW3431TjeRwPU-28" style="edgeStyle=orthogonalEdgeStyle;rounded=0;orthogonalLoop=1;jettySize=auto;html=1;exitX=1;exitY=0.75;exitDx=0;exitDy=0;entryX=0.5;entryY=0;entryDx=0;entryDy=0;" parent="1" source="Ls3zkV5yW3431TjeRwPU-3" target="3ns8ObB6QC6arM-OHQTF-3" edge="1">
          <mxGeometry relative="1" as="geometry" />
        </mxCell>
        <mxCell id="Ls3zkV5yW3431TjeRwPU-29" value="Список нотификаций" style="edgeLabel;html=1;align=center;verticalAlign=middle;resizable=0;points=[];" parent="Ls3zkV5yW3431TjeRwPU-28" vertex="1" connectable="0">
          <mxGeometry x="0.0247" y="2" relative="1" as="geometry">
            <mxPoint x="-43" as="offset" />
          </mxGeometry>
        </mxCell>
        <mxCell id="Ls3zkV5yW3431TjeRwPU-35" style="edgeStyle=orthogonalEdgeStyle;rounded=0;orthogonalLoop=1;jettySize=auto;html=1;exitX=1;exitY=0.5;exitDx=0;exitDy=0;entryX=0.5;entryY=0;entryDx=0;entryDy=0;" parent="1" source="Ls3zkV5yW3431TjeRwPU-3" target="3ns8ObB6QC6arM-OHQTF-8" edge="1">
          <mxGeometry relative="1" as="geometry" />
        </mxCell>
        <mxCell id="Ls3zkV5yW3431TjeRwPU-38" style="edgeStyle=orthogonalEdgeStyle;rounded=0;orthogonalLoop=1;jettySize=auto;html=1;entryX=0;entryY=0.5;entryDx=0;entryDy=0;exitX=0.25;exitY=1;exitDx=0;exitDy=0;" parent="1" source="Ls3zkV5yW3431TjeRwPU-3" target="3ns8ObB6QC6arM-OHQTF-7" edge="1">
          <mxGeometry relative="1" as="geometry" />
        </mxCell>
        <mxCell id="Ls3zkV5yW3431TjeRwPU-41" style="edgeStyle=orthogonalEdgeStyle;rounded=0;orthogonalLoop=1;jettySize=auto;html=1;entryX=0.5;entryY=0;entryDx=0;entryDy=0;" parent="1" source="Ls3zkV5yW3431TjeRwPU-3" target="3ns8ObB6QC6arM-OHQTF-6" edge="1">
          <mxGeometry relative="1" as="geometry">
            <Array as="points">
              <mxPoint x="1120" y="170" />
            </Array>
          </mxGeometry>
        </mxCell>
        <mxCell id="Ls3zkV5yW3431TjeRwPU-3" value="&lt;div&gt;API&lt;/div&gt;&lt;div&gt;Gateway&lt;br&gt;&lt;/div&gt;" style="whiteSpace=wrap;html=1;aspect=fixed;" parent="1" vertex="1">
          <mxGeometry x="545" y="150" width="80" height="80" as="geometry" />
        </mxCell>
        <mxCell id="Ls3zkV5yW3431TjeRwPU-46" style="edgeStyle=orthogonalEdgeStyle;rounded=0;orthogonalLoop=1;jettySize=auto;html=1;exitX=0.25;exitY=0;exitDx=0;exitDy=0;entryX=0.663;entryY=0.95;entryDx=0;entryDy=0;entryPerimeter=0;" parent="1" source="3ns8ObB6QC6arM-OHQTF-6" target="3ns8ObB6QC6arM-OHQTF-8" edge="1">
          <mxGeometry relative="1" as="geometry" />
        </mxCell>
      </root>
    </mxGraphModel>
  </diagram>
</mxfile>
